<?xml version="1.0" encoding="UTF-8"?>
<svg width="24px" height="24px" viewBox="0 0 24 24" version="1.1" xmlns="http://www.w3.org/2000/svg" xmlns:xlink="http://www.w3.org/1999/xlink">
    <!-- Generator: Sketch 59.1 (86144) - https://sketch.com -->
    <title>icon/instagram</title>
    <desc>Created with Sketch.</desc>
    <g id="icon/instagram" stroke="none" stroke-width="1" fill="none" fill-rule="evenodd">
        <path d="M5.31074994,3 L18.6903746,3 C19.9604996,3 21,3.94049998 21,5.31074994 L21,18.6903746 C21,20.0594995 19.9604996,21 18.6892496,21 L5.31074994,21 C4.03949997,21 3,20.0594995 3,18.6892496 L3,5.31074994 C3,3.94049998 4.03949997,3 5.31074994,3 L5.31074994,3 Z M16.1118747,5.00024995 C15.6663747,5.00024995 15.3018747,5.36474994 15.3018747,5.81024993 L15.3018747,7.74974987 C15.3018747,8.19524986 15.6663747,8.55974985 16.1118747,8.55974985 L18.1458746,8.55974985 C18.5913746,8.55974985 18.9558746,8.19524986 18.9558746,7.74974987 L18.9558746,5.81024993 C18.9558746,5.36474994 18.5913746,5.00024995 18.1458746,5.00024995 L16.1118747,5.00024995 L16.1118747,5.00024995 Z M18.9659996,10.6117498 L17.3819996,10.6117498 C17.5316246,11.1011248 17.6126246,11.6197498 17.6126246,12.1563748 C17.6126246,15.1499997 15.1072497,17.5777496 12.0179998,17.5777496 C8.92874984,17.5777496 6.42337491,15.1511247 6.42337491,12.1563748 C6.42337491,11.6197498 6.50437491,11.1011248 6.6539999,10.6117498 L5.00024995,10.6117498 L5.00024995,18.2156246 C5.00024995,18.6093746 5.32199994,18.9311246 5.71574993,18.9311246 L18.2504996,18.9311246 C18.6442496,18.9311246 18.9659996,18.6093746 18.9659996,18.2156246 L18.9659996,10.6117498 L18.9659996,10.6117498 Z M12.0168748,8.45849986 C10.0199998,8.45849986 8.40224986,10.0267498 8.40224986,11.9617498 C8.40224986,13.8967497 10.0211248,15.4649997 12.0168748,15.4649997 C14.0137497,15.4649997 15.6326247,13.8967497 15.6326247,11.9617498 C15.6326247,10.0267498 14.0137497,8.45849986 12.0168748,8.45849986 Z" id="Shape" fill="#2E2E2E" fill-rule="nonzero"></path>
    </g>
</svg>