<?xml version="1.0" encoding="UTF-8"?>
<svg width="24px" height="24px" viewBox="0 0 24 24" version="1.1" xmlns="http://www.w3.org/2000/svg" xmlns:xlink="http://www.w3.org/1999/xlink">
    <!-- Generator: Sketch 63.1 (92452) - https://sketch.com -->
    <title>Icons/linkedin</title>
    <desc>Created with Sketch.</desc>
    <g id="Icons/linkedin" stroke="none" stroke-width="1" fill="none" fill-rule="evenodd">
        <path d="M19,19 L16.1137239,19 L16.1137239,14.7294569 C16.1137239,13.7109904 16.0954794,12.4009585 14.614028,12.4009585 C13.1125076,12.4009585 12.8832354,13.5108626 12.8832354,14.6564217 L12.8832354,19 L10,19 L10,10.2179553 L12.7670789,10.2179553 L12.7670789,11.418722 L12.8066086,11.418722 C13.191567,10.7280511 14.132982,10 15.5371985,10 C18.4599635,10 19,11.8184026 19,14.1837061 L19,19 Z M6.50081744,8 C5.66975477,8 5,7.3280654 5,6.49972752 C5,5.6719346 5.66975477,5 6.50081744,5 C7.3280654,5 8,5.6719346 8,6.49972752 C8,7.3280654 7.3280654,8 6.50081744,8 L6.50081744,8 Z M8,19 L5,19 L5,10 L8,10 L8,19 Z M3.750375,3 C3.3358125,3 3,3.3358125 3,3.7498125 L3,20.249625 C3,20.6641875 3.3358125,21 3.750375,21 L20.2501875,21 C20.6641875,21 21,20.6641875 21,20.249625 L21,3.7498125 C21,3.3358125 20.6641875,3 20.2501875,3 L3.750375,3 Z" id="Fill-33" fill="#2E2E2E"></path>
    </g>
</svg>