<?xml version="1.0" encoding="UTF-8"?>
<svg width="41px" height="41px" viewBox="0 0 41 41" version="1.1" xmlns="http://www.w3.org/2000/svg" xmlns:xlink="http://www.w3.org/1999/xlink">
    <!-- Generator: Sketch 60 (88103) - https://sketch.com -->
    <title>Icons/Membership/Elite</title>
    <desc>Created with Sketch.</desc>
    <defs>
        <linearGradient x1="30.2995191%" y1="17.7683276%" x2="76.617262%" y2="133.670399%" id="linearGradient-1">
            <stop stop-color="#FFFFFF" offset="0%"></stop>
            <stop stop-color="#FFFFFF" offset="100%"></stop>
        </linearGradient>
        <linearGradient x1="30.7902669%" y1="17.0399913%" x2="81.8435382%" y2="126.271802%" id="linearGradient-2">
            <stop stop-color="#FFFFFF" offset="0%"></stop>
            <stop stop-color="#FFFFFF" offset="100%"></stop>
            <stop stop-color="#E54314" offset="100%"></stop>
        </linearGradient>
    </defs>
    <g id="Icons/Membership/Elite" stroke="none" stroke-width="1" fill="none" fill-rule="evenodd">
        <g id="icon">
            <circle id="Oval" fill="#ED700F" cx="20.5" cy="20.5" r="20.5"></circle>
            <g id="icons/burn" transform="translate(10.000000, 4.000000)" fill-rule="nonzero">
                <g id="burn" transform="translate(0.736307, 0.605847)">
                    <path d="M15.4324812,11.0317113 C14.4461176,9.87330933 13.513182,8.77926306 12.8925949,7.40205187 C11.8982069,5.29927855 12.094111,2.79568792 13.4022161,0.889258748 C13.5471645,0.697372423 13.5532175,0.428586377 13.4170668,0.229801448 C13.2809162,0.0310165201 13.0353211,-0.0499376272 12.8145077,0.0311832385 C11.8423696,0.424250188 10.9311248,0.964942857 10.1102274,1.63578444 C8.31011374,3.12025507 7.35662888,4.99944044 7.35662888,7.06740242 C7.43168138,8.32556731 7.64402738,9.5706815 7.98954555,10.778579 C8.40053041,12.5161819 8.88549253,14.4897556 8.32244328,15.2405716 C8.24846601,15.3392503 8.02653419,15.6395768 7.22511372,15.6395768 C6.75416047,15.6548683 6.3015294,15.4485375 5.99215916,15.0775373 C4.72221597,13.597357 5.10443188,9.89047084 5.10854173,9.8604382 C5.13051306,9.64692869 5.03125958,9.43963756 4.85448257,9.32983501 C4.67770557,9.22003245 4.45583954,9.22786472 4.28657202,9.34988327 C4.10984854,9.4785946 0,12.6320221 0,19.1147826 C0,25.7048025 5.10443188,28.6565822 10.1636554,28.6565822 C15.5681063,28.6565822 19.0573677,24.949696 19.0573677,19.2177516 C19.0573677,15.3006369 17.2161555,13.1339963 15.4324812,11.0360016 L15.4324812,11.0317113 Z M3.98244323,11.0917766 L3.98244323,11.6709775 C4.02765156,12.9580908 4.27424248,14.7514686 5.18662885,15.8154822 C5.70490461,16.4168977 6.45054389,16.7495976 7.22511372,16.7250423 C7.9566881,16.7870215 8.67270845,16.4810201 9.15263269,15.9012898 C10.0321403,14.721436 9.5348486,12.6663451 9.00878799,10.4911237 C8.6888376,9.37344855 8.48761515,8.22242754 8.4087501,7.05882166 C8.4087501,5.34267064 9.18962132,3.79813473 10.7308145,2.51531184 C10.8746592,2.39518127 11.0267236,2.2750507 11.1870077,2.1592105 L11.6966289,1.79023803 L11.5075759,2.42092353 C10.9678015,4.2261608 11.1149892,6.1790908 11.9185608,7.8739934 C12.6358966,9.29892483 13.5467379,10.6081512 14.6228411,11.7610755 C16.3530873,13.7947144 17.9846972,15.7125132 17.9846972,19.2134613 C17.9846972,21.7876878 17.2654737,23.8856824 15.901004,25.33583 C14.5365343,26.7859776 12.5473676,27.5582456 10.147216,27.5582456 C7.9780154,27.607208 5.84795314,26.9504657 4.05231066,25.6790602 C2.0919129,24.1945896 1.05623107,21.9249799 1.05623107,19.1147826 C1.01244718,16.3464102 1.92418632,13.6539919 3.62488641,11.5293951 L3.98244323,11.0917766 Z" id="Shape" stroke="url(#linearGradient-2)" stroke-width="0.3" fill="url(#linearGradient-1)"></path>
                    <ellipse id="Oval" stroke="#FFFFFF" fill="#FFFFFF" cx="13.3401574" cy="23.9915572" rx="1" ry="1"></ellipse>
                    <ellipse id="Oval" stroke="#FFFFFF" fill="#FFFFFF" cx="15.2458941" cy="21.3258286" rx="1" ry="1"></ellipse>
                </g>
            </g>
        </g>
    </g>
</svg>