<?xml version="1.0" encoding="UTF-8"?>
<svg width="41px" height="41px" viewBox="0 0 41 41" version="1.1" xmlns="http://www.w3.org/2000/svg" xmlns:xlink="http://www.w3.org/1999/xlink">
    <!-- Generator: Sketch 60 (88103) - https://sketch.com -->
    <title>Icons/Membership/Packages</title>
    <desc>Created with Sketch.</desc>
    <g id="Icons/Membership/Packages" stroke="none" stroke-width="1" fill="none" fill-rule="evenodd">
        <g id="Group">
            <circle id="Oval" fill="#3B78AB" cx="20.5" cy="20.5" r="20.5"></circle>
            <g id="Lightning" transform="translate(12.000000, 7.000000)" fill="#FFFFFF" fill-rule="nonzero">
                <path d="M14.1398766,10.8910702 C15.1127693,10.8910702 16.0891616,10.8910702 17.0620543,10.8910702 C17.146045,10.8910702 17.2300357,10.8982089 17.3105269,10.9089171 C17.3665207,10.9160558 17.4190149,10.9339027 17.4715091,10.9517496 C17.5100049,10.9624578 17.5415014,10.9874434 17.5799971,10.9945822 C17.7584774,11.0231372 17.8319693,11.1659124 17.9054612,11.3051182 C17.9334581,11.3550896 17.9474566,11.4121996 17.9649547,11.4657403 C18.0174489,11.6049461 18.0104497,11.744152 17.9474566,11.8797884 C17.8634659,12.0582574 17.7479786,12.2081713 17.6219925,12.3509465 C17.4680095,12.5294155 17.3140265,12.7114539 17.1600435,12.8899229 C17.1355462,12.9184779 17.1075493,12.947033 17.0795523,12.9791574 C16.9535662,13.1255019 16.8275801,13.2682771 16.7050937,13.4146217 C16.6316018,13.5002868 16.5581099,13.5859519 16.4811184,13.6716171 C16.3096373,13.8643636 16.1346566,14.0571101 15.9631755,14.253426 C15.7392002,14.5139907 15.5187245,14.7781248 15.2947492,15.0386895 C15.1477655,15.2100198 14.9972821,15.3777806 14.8467987,15.5455415 C14.825801,15.5705271 14.7978041,15.5955128 14.780306,15.6204984 C14.689316,15.7561349 14.5738288,15.8739244 14.4618411,15.9952833 C14.3043585,16.1630442 14.1433763,16.330805 13.9893932,16.5021353 C13.9019029,16.5985085 13.828411,16.7055899 13.7479199,16.8055325 C13.6499307,16.9233221 13.5519415,17.0411116 13.4504527,17.1517624 C13.3384651,17.2731213 13.229977,17.3909108 13.1319878,17.5265473 C13.1109901,17.5551023 13.0864928,17.5765186 13.0654952,17.6015042 C12.9500079,17.7335713 12.8345206,17.862069 12.7190334,17.994136 C12.6000465,18.1297725 12.47756,18.2618395 12.3585732,18.3974759 C12.2710828,18.4938492 12.1870921,18.5902224 12.1031013,18.6901651 C11.9176218,18.9043279 11.7356419,19.1184907 11.5501623,19.3290841 C11.3471847,19.5646631 11.1407075,19.7966728 10.9377299,20.0322519 C10.7382519,20.2606922 10.5352743,20.4891325 10.3392959,20.7211422 C10.1153206,20.9817069 9.87734687,21.2315635 9.66737004,21.5064058 C9.60437699,21.5849321 9.53788432,21.6598891 9.46789204,21.7384155 C9.36990285,21.8490662 9.27191366,21.9561476 9.17392447,22.0667984 C9.0549376,22.2024348 8.93945034,22.3416406 8.82046346,22.4772771 C8.73997234,22.5700809 8.65598161,22.6628848 8.57549049,22.7556887 C8.41100863,22.9484352 8.25002639,23.1447511 8.08204492,23.3374976 C7.91406346,23.5302441 7.74258237,23.7158519 7.5746009,23.905029 C7.41011905,24.0906368 7.24913681,24.2798139 7.08465495,24.4654216 C6.97266731,24.5939193 6.86067966,24.722417 6.75219163,24.8473453 C6.60520784,25.0186755 6.45472445,25.1864364 6.30774066,25.3577666 C6.09426421,25.6004844 5.88078776,25.8396329 5.67081092,26.0823507 C5.52732675,26.2501115 5.39084181,26.4214418 5.24735764,26.5892026 C5.16686652,26.6855759 5.0863754,26.7783798 5.00238466,26.8676143 C4.86589972,27.0175282 4.72591516,27.1674422 4.58943022,27.3173561 C4.5334364,27.3816049 4.48094219,27.4458538 4.42494836,27.5101026 C4.35495609,27.5921984 4.28146419,27.6707247 4.21147191,27.7492511 C4.11698234,27.8599018 3.99099624,27.9205813 3.85801091,27.974122 C3.76702094,28.0098158 3.66903175,28.0062464 3.57804179,27.9776914 C3.42755839,27.9277201 3.28057461,27.8670406 3.18258542,27.7349735 C3.07059777,27.5814902 2.98660704,27.4172987 2.99360627,27.2174135 C2.99360627,27.1781503 3.00060549,27.1353177 3.01460395,27.0996239 C3.08459623,26.9140162 3.15458851,26.7284084 3.2280804,26.5428007 C3.30157229,26.3643317 3.38206341,26.1894321 3.44855608,26.0073937 C3.49055144,25.8967429 3.54654527,25.7932309 3.59903948,25.6861495 C3.6060387,25.671872 3.61653755,25.6575945 3.62003716,25.6397476 C3.69002944,25.3756135 3.82651438,25.136465 3.92800319,24.8830391 C4.01199392,24.6724457 4.09248504,24.4618523 4.17297616,24.2476895 C4.17997539,24.2334119 4.17997539,24.2119957 4.19047423,24.1977181 C4.29196303,24.0263879 4.34795686,23.8336414 4.42494836,23.6551724 C4.52993678,23.416024 4.62442636,23.1733061 4.72591516,22.9305883 C4.81340551,22.7164255 4.90439547,22.5022627 4.99538544,22.2916693 C5.05837849,22.138186 5.11787192,21.988272 5.18086497,21.8347887 C5.21936073,21.7419848 5.26135609,21.6456116 5.29985185,21.5528077 C5.39784104,21.3243674 5.49233061,21.0923577 5.5903198,20.8639174 C5.68830899,20.6354771 5.77929896,20.4034674 5.87378853,20.1750271 C5.93328197,20.0358213 6.00677386,19.9001848 6.04177,19.7502709 C6.0662673,19.6431895 6.13275996,19.5432469 6.17825494,19.4397348 C6.2937422,19.1756007 6.40572985,18.9078973 6.5177175,18.6401938 C6.57721093,18.4938492 6.63320476,18.3439352 6.69269819,18.1975907 C6.72769433,18.1119256 6.76619009,18.0333992 6.80118622,17.9477341 C6.86767889,17.787112 6.93767117,17.6229205 7.00066422,17.458729 C7.02516152,17.3909108 7.04265959,17.3159539 7.04965881,17.2445663 C7.06015766,17.148193 7.01816229,17.0946523 6.92367271,17.073236 C6.84668121,17.0553891 6.7696897,17.0518197 6.69269819,17.044681 C6.6437036,17.0411116 6.59120939,17.044681 6.54221479,17.044681 C4.62792597,17.044681 2.71363715,17.044681 0.79934833,17.0482504 C0.662863386,17.0482504 0.529878057,17.0339728 0.407391569,16.9732934 C0.197414733,16.8733508 0.0469313343,16.7198674 0.00843558103,16.4664415 C-0.0195613304,16.2808337 0.0259336507,16.1202116 0.0889267015,15.9560201 C0.109924385,15.8989101 0.155419366,15.8525081 0.193915119,15.8025368 C0.326900449,15.634776 0.463385392,15.4705845 0.613868791,15.3171012 C0.736355279,15.1921729 0.841343697,15.052967 0.956830957,14.9209 C1.10031513,14.7531391 1.24729891,14.5889477 1.39078308,14.4247562 C1.57276301,14.2141628 1.75124332,14.0035694 1.92972363,13.7965454 C2.01371436,13.7001721 2.10120471,13.6037988 2.18869506,13.5074256 C2.36017614,13.3146791 2.53865645,13.1219326 2.70663792,12.9256167 C2.87811901,12.7257314 3.04260086,12.515138 3.21058233,12.3116833 C3.23857924,12.2759895 3.27357538,12.2474345 3.30507191,12.2153101 C3.4555553,12.0618268 3.59903948,11.904774 3.72852519,11.7334438 C3.75302249,11.7013194 3.7810194,11.6727644 3.80901631,11.6477787 C3.91400473,11.5478361 4.00149508,11.4264771 4.09598465,11.312257 C4.183475,11.208745 4.27096535,11.105233 4.36195531,11.0052903 C4.54043562,10.8018357 4.72591516,10.6055198 4.90439547,10.3984958 C5.10737308,10.1629167 5.30685108,9.92376825 5.50632907,9.68818918 C5.60431826,9.57396902 5.70930668,9.45974887 5.81079548,9.34552871 C5.88078776,9.26343298 5.95078004,9.18133724 6.02077232,9.10281089 C6.17825494,8.9243419 6.33923719,8.74944228 6.4932202,8.57097329 C6.6192063,8.4281981 6.74169279,8.27828415 6.86417928,8.13193958 C6.89917541,8.08910702 6.93417155,8.04270508 6.97266731,8.0034419 C7.10915225,7.86780547 7.22813912,7.71789152 7.35062561,7.56797756 C7.44511519,7.45018803 7.55360322,7.33953726 7.65509202,7.2253171 C7.80557542,7.05041749 7.95605882,6.87551788 8.10654222,6.70061827 C8.28152292,6.500733 8.45650362,6.30084773 8.63148431,6.10453184 C8.73997234,5.98317292 8.85195999,5.86181401 8.95694841,5.7404551 C9.07243567,5.60838804 9.18792293,5.47632099 9.29991057,5.34425394 C9.46089281,5.15507681 9.62187505,4.96589967 9.7828573,4.77672254 C9.85284957,4.69462681 9.92284185,4.61610045 9.99283413,4.53400472 C10.1398179,4.36267449 10.2903013,4.19491363 10.4372851,4.0235834 C10.5982673,3.84154503 10.7627492,3.66307604 10.9202318,3.48103767 C11.0567168,3.32398496 11.1862025,3.15979349 11.3191878,2.99917139 C11.3436851,2.96704698 11.371682,2.93849194 11.3996789,2.9099369 C11.6131554,2.69220473 11.8126334,2.46376442 12.0016125,2.22104659 C12.0681052,2.13538148 12.1415971,2.05685512 12.2115894,1.97832877 C12.3095786,1.86767799 12.4075677,1.7605966 12.5055569,1.64994582 C12.6840372,1.44649117 12.8590179,1.23946714 13.0374983,1.03601249 C13.1774828,0.875390401 13.3174674,0.711198929 13.4609515,0.550576837 C13.5624403,0.436356683 13.6639291,0.325705909 13.765418,0.211485754 C13.8179122,0.150806297 13.8844048,0.115112499 13.9543971,0.079418701 C14.1538751,-0.0312320734 14.3463539,-0.0169545541 14.5493315,0.0651411817 C14.6753176,0.115112499 14.7698072,0.186500096 14.8397994,0.30428963 C14.9657855,0.511313659 15.0042813,0.725476448 14.9237902,0.953916757 C14.8992929,1.02887373 14.8677963,1.10383071 14.8362998,1.17521831 C14.7873052,1.3001466 14.7383106,1.42864427 14.6858164,1.55357257 C14.6298226,1.689209 14.5668295,1.82127605 14.5073361,1.95691249 C14.5003369,1.97119001 14.489838,1.9890369 14.4863384,2.00331442 C14.4373438,2.22818535 14.3218566,2.42807062 14.2378658,2.63509465 C14.1573747,2.8385493 14.0803832,3.04914271 13.9753948,3.24188922 C13.9648959,3.2633055 13.9508975,3.2811524 13.9473979,3.30256868 C13.8914041,3.49888457 13.7969145,3.68092294 13.719923,3.87010007 C13.628933,4.094971 13.5344434,4.31984193 13.4399539,4.54471286 C13.3944589,4.65536363 13.3699616,4.77315316 13.2929701,4.86952642 C13.2509747,5.10153611 13.0969917,5.28714386 13.0444975,5.51558417 C12.9430087,5.69405316 12.8870149,5.89036905 12.8065237,6.0759768 C12.7050349,6.30441711 12.614045,6.5364268 12.5195554,6.7648671 C12.4285654,6.98259927 12.3375755,7.20390082 12.2465855,7.42163299 C12.1975909,7.53585315 12.1625948,7.65721206 12.0961021,7.76429345 C12.0576064,7.985595 11.9141222,8.16406399 11.8546287,8.38179616 C11.8231322,8.4995857 11.7601392,8.61023647 11.7111446,8.72445663 C11.6481515,8.87437058 11.5816589,9.02428453 11.525665,9.18133724 C11.4486735,9.38836127 11.3506843,9.58824654 11.263194,9.78813181 C11.2596944,9.79883995 11.2491955,9.80597871 11.2456959,9.81668685 C11.2072002,10.0165721 11.0882133,10.1807636 11.0287199,10.3699407 C11.0077222,10.4341896 10.9832249,10.5020078 10.9447291,10.5555485 C10.9062334,10.6090892 10.9027338,10.6590605 10.9062334,10.7161706 C10.909733,10.8054051 10.9657268,10.8660845 11.0497175,10.8732233 C11.0952125,10.8767927 11.1407075,10.8732233 11.1827029,10.8732233 C12.169594,10.8910702 13.1564851,10.8910702 14.1398766,10.8910702 C14.1398766,10.8910702 14.1398766,10.8910702 14.1398766,10.8910702 Z M12.5475523,12.3723628 C12.5475523,12.3723628 12.5475523,12.3723628 12.5475523,12.3723628 C11.8546287,12.3723628 11.1582056,12.3723628 10.465282,12.3723628 C10.2308079,12.3723628 9.99633375,12.3759322 9.75836,12.3723628 C9.66387042,12.3687934 9.56238162,12.3723628 9.47839088,12.3330996 C9.34540555,12.2724202 9.22991829,12.1796163 9.15292679,12.0475492 C9.02344107,11.8262477 9.01644184,11.5906686 9.10043258,11.3550896 C9.1809237,11.1266492 9.2824125,10.9017783 9.37690208,10.6769074 C9.48539011,10.4163427 9.59387814,10.1522086 9.70586579,9.89164383 C9.72686347,9.84524189 9.74786116,9.79883995 9.76535923,9.74886863 C9.82485266,9.5953853 9.87734687,9.43833259 9.94733915,9.29198802 C10.0523276,9.07782523 10.1293191,8.8529543 10.2273083,8.63522213 C10.3427955,8.37822678 10.4407847,8.1105233 10.5527724,7.84995857 C10.66476,7.5965326 10.7662488,7.33596788 10.8712372,7.07897253 C10.9202318,6.95761361 10.9692264,6.8362547 11.018221,6.71489579 C11.1197098,6.46146982 11.2526951,6.22232137 11.3296867,5.96175664 C11.3331863,5.94390975 11.3436851,5.92963223 11.3506843,5.91535471 C11.4346751,5.7226082 11.5221654,5.53343107 11.6061562,5.34068456 C11.6376527,5.27286634 11.6551507,5.20147874 11.6481515,5.12295239 C11.6411523,5.04442603 11.5606612,5.00516285 11.5011677,5.05156479 C11.4661716,5.08011983 11.4346751,5.11224425 11.4066782,5.14793805 C11.3331863,5.23360316 11.2596944,5.3156989 11.1862025,5.40493339 C11.0077222,5.62266556 10.8152434,5.83325897 10.6297639,6.04385238 C10.3952897,6.31155587 10.157316,6.57568997 9.92284185,6.84696284 C9.54838316,7.2788578 9.17392447,7.71075276 8.79946578,8.13907834 C8.53349512,8.446045 8.26402485,8.75301166 7.99805419,9.05997833 C7.80557542,9.28127988 7.61309666,9.50615081 7.42061789,9.72745236 C7.22813912,9.9487539 7.03216074,10.1664861 6.83618236,10.3877876 C6.67520012,10.569826 6.51421788,10.7518644 6.35323564,10.9339027 C6.33223796,10.9588884 6.30424105,10.9838741 6.28324336,11.0088597 C6.15025803,11.1694818 6.02077232,11.3336733 5.88428737,11.4942954 C5.68830899,11.7227357 5.488831,11.9440372 5.28935301,12.1689082 C5.22635996,12.2402957 5.15636768,12.308114 5.09337463,12.3795016 C4.84490204,12.6650519 4.59992906,12.9541717 4.35145647,13.2397221 C4.0819862,13.5502581 3.80901631,13.8607942 3.53604643,14.1713302 C3.22458079,14.5282682 2.90961553,14.8852062 2.59814989,15.2457136 C2.56315375,15.2849767 2.53165723,15.3206705 2.49666109,15.3599337 C2.44766649,15.4206132 2.44766649,15.4920008 2.50715993,15.5419721 C2.53865645,15.5705271 2.58415144,15.5919434 2.6261468,15.5990822 C2.66814217,15.6097903 2.71363715,15.6026515 2.75913213,15.6026515 C4.52293755,15.6026515 6.28674298,15.6026515 8.0505484,15.5990822 C8.18703334,15.5990822 8.31651906,15.6240678 8.44250516,15.6704698 C8.49499937,15.691886 8.54749358,15.7097329 8.59998779,15.7311492 C8.62448508,15.7418574 8.64898238,15.7561349 8.67347968,15.7739818 C8.8554596,15.916757 8.9044542,16.1309198 8.94644957,16.3415132 C8.94994918,16.3557907 8.94644957,16.377207 8.93945034,16.3914845 C8.90095458,16.5235515 8.86945806,16.6556186 8.82396308,16.7841163 C8.72597389,17.0553891 8.60698701,17.3195232 8.5019986,17.5872267 C8.41100863,17.815667 8.30951983,18.0333992 8.21503025,18.2582701 C8.10304261,18.529543 7.99105496,18.8043852 7.87906732,19.0756581 C7.7985762,19.2755434 7.72158469,19.478998 7.63409434,19.6717445 C7.53610515,19.8894767 7.45911364,20.1143476 7.35412523,20.3285104 C7.25963565,20.5248263 7.19314299,20.7389891 7.11615148,20.9460131 C7.10915225,20.9674294 7.09865341,20.9888457 7.09165418,21.010262 C7.03566036,21.1387596 6.97266731,21.2672573 6.9201731,21.3993244 C6.86767889,21.5242527 6.82218391,21.6527503 6.7696897,21.7776786 C6.64720321,22.063229 6.52121711,22.3487794 6.41972831,22.6450379 C6.39523101,22.7164255 6.38473217,22.7878131 6.33223796,22.8449232 C6.32173912,22.8556313 6.3182395,22.8770476 6.3182395,22.8913251 C6.30774066,22.9520046 6.35673526,23.0055453 6.41972831,22.9912678 C6.4442256,22.9876984 6.47572213,22.9734209 6.4932202,22.955574 C6.56321248,22.8841864 6.64720321,22.8270763 6.70669665,22.7378418 C6.77318931,22.6414685 6.85368043,22.552234 6.93417155,22.4629996 C7.12665032,22.241698 7.32612831,22.0239658 7.51860708,21.8026643 C7.80557542,21.4742813 8.09254377,21.1494678 8.37951211,20.8210848 C8.55799242,20.6176302 8.73297312,20.4106062 8.91145343,20.2035821 C9.02344107,20.0750845 9.13542872,19.9501562 9.24741636,19.8216585 C9.44339474,19.5932182 9.63587351,19.3647779 9.83185189,19.1363376 C10.1013222,18.8258015 10.3742921,18.5152655 10.6437623,18.20116 C10.8362411,17.9798585 11.0287199,17.7549876 11.2211986,17.5372554 C11.4136774,17.3159539 11.6131554,17.0982217 11.8056341,16.8769201 C11.9561175,16.7020205 12.1031013,16.5235515 12.2535847,16.3450825 C12.3060789,16.2844031 12.3550735,16.2237236 12.4075677,16.1630442 C12.5510519,16.0024221 12.7015353,15.8489387 12.8415199,15.6847473 C13.1494859,15.3278093 13.4469531,14.9673019 13.7549191,14.6139333 C14.0698844,14.2498566 14.3883492,13.8893492 14.7033145,13.5288419 C14.9272898,13.2718465 15.1512651,13.0184205 15.3682411,12.7614252 C15.4312342,12.6900376 15.4767292,12.6043725 15.5222241,12.5187074 C15.5642195,12.4437504 15.5187245,12.3723628 15.4312342,12.3616547 C15.3822396,12.3580853 15.3297454,12.3580853 15.2807508,12.3580853 C14.3603523,12.3723628 13.4539523,12.3723628 12.5475523,12.3723628 Z" id="Shape"></path>
            </g>
        </g>
    </g>
</svg>