<?xml version="1.0" encoding="UTF-8"?>
<svg width="41px" height="41px" viewBox="0 0 41 41" version="1.1" xmlns="http://www.w3.org/2000/svg" xmlns:xlink="http://www.w3.org/1999/xlink">
    <!-- Generator: Sketch 60 (88103) - https://sketch.com -->
    <title>Icons/Membership/Basic</title>
    <desc>Created with Sketch.</desc>
    <g id="Icons/Membership/Basic" stroke="none" stroke-width="1" fill="none" fill-rule="evenodd">
        <g id="icon">
            <circle id="Oval" fill="#ED700F" cx="20.5" cy="20.5" r="20.5"></circle>
            <path d="M25.1945239,27.99962 C25.4660582,27.9924696 25.7214015,27.8630282 25.8949392,27.6445579 C26.0684769,27.4260876 26.1432899,27.1398883 26.1001537,26.8595034 L25.3238951,21.9383535 L28.7184715,18.4278197 C28.9726203,18.1666764 29.0639374,17.7778698 28.9543863,17.4233497 C28.8448352,17.0688295 28.5532,16.8093824 28.2009553,16.7530759 L23.4818043,16.0058847 L21.3440305,11.5484964 C21.1854455,11.2126276 20.8582525,11 20.5,11 C20.1417475,11 19.8145545,11.2126276 19.6559695,11.5484964 L17.5181957,16.0058847 L12.7990447,16.7530759 C12.4468,16.8093824 12.1551648,17.0688295 12.0456137,17.4233497 C11.9360626,17.7778698 12.0273797,18.1666764 12.2815285,18.4278197 L15.6761049,21.9383535 L14.8998778,26.8595034 C14.8434199,27.2263251 14.9893617,27.5951226 15.2772015,27.8130068 C15.5650413,28.0308911 15.9457084,28.0607174 16.261393,27.890121 L20.5,25.5970132 L24.738607,27.890121 C24.8793451,27.9661511 25.0361599,28.0038138 25.1945239,27.99962 Z" id="Path" stroke="#FFFFFF" stroke-width="1.5"></path>
        </g>
    </g>
</svg>