<?xml version="1.0" encoding="UTF-8"?>
<svg width="24px" height="24px" viewBox="0 0 24 24" version="1.1" xmlns="http://www.w3.org/2000/svg" xmlns:xlink="http://www.w3.org/1999/xlink">
    <!-- Generator: Sketch 59.1 (86144) - https://sketch.com -->
    <title>icon/twitter</title>
    <desc>Created with Sketch.</desc>
    <g id="icon/twitter" stroke="none" stroke-width="1" fill="none" fill-rule="evenodd">
        <path d="M19.9651121,7.81117424 C19.9721996,7.97708211 19.9769246,8.14298997 19.9769246,8.31125114 C19.9769246,13.4143887 16.0764372,19.2999996 8.94404984,19.2999996 C6.7540124,19.2999996 4.7163562,18.6610778 3,17.5656153 C3.30358124,17.6009148 3.61188748,17.6185646 3.92491873,17.6185646 C5.74168118,17.6185646 7.41314988,17.0019992 8.74087485,15.9653692 C7.04341864,15.9347763 5.61174368,14.818134 5.11798119,13.2837804 C5.35541244,13.3284932 5.59756868,13.3520262 5.84799367,13.3520262 C6.20118742,13.3520262 6.54374991,13.3049601 6.8697749,13.2167113 C5.09553744,12.8625392 3.75954373,11.3011226 3.75954373,9.43024672 L3.75954373,9.38082736 C4.28165622,9.67028363 4.88054995,9.84442805 5.51606243,9.86443113 C4.47538121,9.17138339 3.79025623,7.98884862 3.79025623,6.6498192 C3.79025623,5.94147499 3.98161872,5.27784354 4.31591247,4.70716756 C6.22835616,7.04399746 9.08579984,8.58188098 12.3082498,8.74308224 C12.2420998,8.46068588 12.2078435,8.16534635 12.2078435,7.86294691 C12.2078435,5.72967772 13.944281,4 16.0847059,4 C17.2009871,4 18.2085933,4.46948395 18.9149808,5.22018762 C19.7985558,5.04721984 20.6289745,4.72599398 21.377887,4.28357301 C21.0884808,5.18488807 20.4730495,5.94147499 19.6733433,6.42037216 C20.4576933,6.32624004 21.2042433,6.11914937 21.8999995,5.81204333 C21.3802495,6.58628002 20.7222933,7.26638459 19.9651121,7.81117424" id="Path" fill="#333333"></path>
    </g>
</svg>